# xmcd
#
# Track frame offsets: 
#        150
#        21972
#        42817
#        63153
#        83808
#        106229
#        128284
#        150864
#        177487
#        199812
#        218689
#        232446
#
# Disc length: 3490 seconds
#
# Revision: 0
# Processed by: cddbd v1.5.1PL0 Copyright (c) Steve Scherf et al.
# Submitted via: ExactAudioCopy v0.95a2
#
DISCID=950da00c
DTITLE=Southside Slim - Raising Hell
DYEAR=2001
DGENRE=Blues
TTITLE0=Blues For Sure
TTITLE1=Roadblock
TTITLE2=8 O'Clock In The Morning
TTITLE3=Young Man
TTITLE4=Comin' To Your House
TTITLE5=Almost Daylight
TTITLE6=Raisin' Hell
TTITLE7=Another Lonely Night
TTITLE8=You Can Never Tell
TTITLE9=Kitchen Floor
TTITLE10=Big Money
TTITLE11=I Wish I Was Blind
EXTD=
EXTT0=
EXTT1=
EXTT2=
EXTT3=
EXTT4=
EXTT5=
EXTT6=
EXTT7=
EXTT8=
EXTT9=
EXTT10=
EXTT11=
PLAYORDER=
